<svg width="273" height="526" viewBox="0 0 273 526" fill="none" xmlns="http://www.w3.org/2000/svg">
<rect width="273" height="526" fill="#ffffff"/>
<rect width="273" height="526" fill="#9fc3ff12"/>
<path fill-rule="evenodd" clip-rule="evenodd" d="M273 0H0V267.643L60.1167 332.459L41.8444 349.407L25.4745 331.757L0 301.424V307.994L25.337 364.717L13.2939 375.887L0 368.706V526H94.8736L67.4645 496.449L97.6243 468.475C103.68 462.858 109.916 459.135 116.331 457.305C122.78 455.444 128.979 455.36 134.927 457.053C140.843 458.712 146.096 462.015 150.686 466.964C155.212 471.844 157.983 477.192 159 483.008C160.017 488.824 159.275 494.792 156.774 500.91C154.275 506.961 149.998 512.796 143.941 518.413L135.761 526H273V434.778C271.551 434.841 270.094 434.825 268.629 434.728C262.802 434.275 256.989 432.52 251.193 429.463C245.398 426.339 239.773 421.836 234.316 415.953L230.416 411.748C224.96 405.865 220.909 399.901 218.264 393.856C215.619 387.812 214.288 381.9 214.272 376.121C214.258 370.276 215.452 364.726 217.854 359.473C220.29 354.187 223.862 349.362 228.568 344.996C235.524 338.545 242.21 334.404 248.624 332.575C255.007 330.711 261.121 330.673 266.965 332.463C269.017 333.082 271.028 333.879 273 334.854V270.885C270.372 271.29 267.699 271.443 264.98 271.344C259.005 271.059 253.026 269.506 247.045 266.684C241.063 263.796 235.278 259.573 229.689 254.013L226.728 251.067C221.14 245.508 216.886 239.745 213.967 233.778C211.081 227.778 209.48 221.825 209.164 215.918C208.848 209.945 209.801 204.201 212.023 198.689C214.245 193.109 217.702 187.96 222.396 183.242C227.056 178.557 232.154 175.106 237.689 172.889C243.223 170.605 248.978 169.605 254.953 169.89C260.894 170.142 266.873 171.695 272.888 174.549L273 174.603V0ZM273 249.456V205.52L272.416 204.939C268.802 201.344 265.307 198.5 261.931 196.406C258.554 194.245 255.33 192.835 252.257 192.176C249.185 191.516 246.298 191.607 243.597 192.449C240.896 193.223 238.43 194.732 236.199 196.974C233.869 199.316 232.324 201.84 231.563 204.545C230.769 207.217 230.726 210.071 231.435 213.107C232.144 216.142 233.588 219.342 235.766 222.708C237.944 226.006 240.84 229.453 244.454 233.048L247.516 236.094C251.096 239.656 254.558 242.534 257.901 244.728C261.244 246.855 264.452 248.282 267.525 249.008C269.426 249.432 271.251 249.582 273 249.456ZM273 351.683L265.946 358.226C263.289 356.055 260.673 354.554 258.099 353.722C255.528 352.824 252.943 352.743 250.343 353.481C247.711 354.183 244.994 355.834 242.191 358.434C240.011 360.457 238.454 362.769 237.521 365.373C236.623 367.944 236.434 370.759 236.953 373.818C237.441 376.842 238.654 380.094 240.594 383.574C242.569 387.022 245.321 390.649 248.852 394.456L252.848 398.764C256.347 402.536 259.724 405.552 262.979 407.812C266.268 410.04 269.436 411.512 272.482 412.228C272.561 412.245 272.64 412.261 272.719 412.277C272.813 412.296 272.906 412.314 273 412.331V392.589L262.379 381.137L273 371.286V351.683ZM118.954 515.419L130.894 504.345C133.454 501.97 135.13 499.611 135.919 497.27C136.709 494.928 136.761 492.659 136.075 490.462C135.392 488.199 134.152 486.098 132.354 484.16C130.428 482.084 128.266 480.516 125.868 479.457C123.504 478.366 121.029 478.023 118.442 478.426C115.823 478.796 113.233 480.168 110.672 482.543L98.7327 493.617L118.954 515.419ZM161.681 409.062L166.457 404.633L264.486 454.311L244.864 472.51L227.397 462.445L202.437 485.595L211.174 503.758L191.604 521.909L149.275 420.569L153.895 416.284L161.681 409.062ZM193.732 467.5L209.995 452.416L177.455 433.665L193.732 467.5ZM80.3431 424.72L97.8197 407.152C102.673 412.446 105.792 418.279 107.177 424.65C108.562 431.021 108.129 437.514 105.876 444.128C103.624 450.676 99.5015 456.961 93.5095 462.984C88.6493 467.87 83.4853 471.421 78.0175 473.638C72.5829 475.822 66.9947 476.721 61.2531 476.335C55.5447 475.916 49.7997 474.229 44.0179 471.274C38.2695 468.285 32.6513 464.061 27.1634 458.601L23.1981 454.657C17.7102 449.197 13.4902 443.568 10.538 437.768C7.58564 431.902 5.90172 426.099 5.48626 420.359C5.07062 414.553 5.92377 408.943 8.04573 403.531C10.1677 398.118 13.5256 393.103 18.1194 388.485C24.4443 382.128 30.9249 377.889 37.5611 375.769C44.1974 373.649 50.705 373.365 57.0838 374.917C63.4292 376.436 69.3447 379.491 74.8303 384.082L57.3538 401.65C54.5432 398.987 51.785 397.176 49.0791 396.215C46.3396 395.221 43.5694 395.194 40.7682 396.136C37.9671 397.078 35.0186 399.105 31.9228 402.217C29.759 404.392 28.2798 406.682 27.485 409.087C26.6902 411.493 26.6303 414.096 27.3051 416.898C27.9799 419.7 29.4397 422.75 31.6845 426.048C33.9291 429.28 36.9922 432.826 40.8739 436.688L44.9396 440.732C48.8213 444.594 52.3671 447.655 55.5771 449.916C58.7871 452.178 61.7781 453.655 64.5501 454.349C67.3221 455.042 69.9419 454.985 72.4097 454.178C74.8772 453.304 77.3094 451.662 79.7062 449.253C82.3693 446.576 84.198 443.901 85.1923 441.228C86.1531 438.522 86.2628 435.802 85.5215 433.067C84.7466 430.299 83.0205 427.516 80.3431 424.72ZM95.2716 313.038L90.6777 317.656L83.1877 325.185L78.7437 329.653L125.112 429.209L143.937 410.286L134.477 392.49L158.486 368.355L176.343 377.71L195.218 358.737L95.2716 313.038ZM107.428 341.605L125.051 374.759L140.695 359.034L107.428 341.605ZM224.179 329.624L218.087 335.748L208.051 345.837L200.561 353.366L127.478 280.663L134.669 273.435L145.005 263.045L150.847 257.173C155.774 252.22 161.138 248.535 166.939 246.117C172.74 243.632 178.711 242.448 184.852 242.565C190.994 242.616 197.022 243.952 202.936 246.573C208.85 249.128 214.401 252.985 219.587 258.145L222.649 261.191C227.802 266.317 231.688 271.848 234.307 277.782C236.959 283.682 238.343 289.686 238.459 295.794C238.575 301.901 237.439 307.862 235.052 313.675C232.663 319.422 229.039 324.739 224.179 329.624ZM210.627 316.142L204.535 322.266L158.607 276.577L164.45 270.704C167.013 268.128 169.728 266.302 172.596 265.226C175.497 264.117 178.516 263.792 181.655 264.251C184.76 264.677 187.984 265.887 191.327 267.881C194.669 269.808 198.097 272.519 201.611 276.014L204.773 279.16C209.458 283.821 212.791 288.368 214.771 292.802C216.752 297.169 217.38 301.322 216.656 305.263C215.965 309.169 213.956 312.796 210.627 316.142ZM123.81 273.383L110.811 259.367L77.0173 290.711L60.3104 272.698L88.9128 246.169L76.3465 232.621L47.7441 259.15L32.9631 243.213L66.9123 211.725L53.8645 197.658L19.9154 229.146L13.4266 235.164L1.69494 246.045L71.7965 321.626L83.5281 310.745L90.0169 304.727L123.81 273.383ZM90.9283 163.281L61.1838 190.869L131.285 266.45L149.506 249.551L124.758 222.869L134.569 213.769L172.658 228.077L192.176 209.974L191.454 209.195L147.42 193.315C148.546 190.452 149.335 187.608 149.788 184.783C150.445 180.633 150.1 176.478 148.753 172.32C147.407 168.161 144.727 163.918 140.715 159.593C136.093 154.609 131.033 151.513 125.534 150.304C120.07 149.063 114.389 149.568 108.493 151.818C102.597 154.068 96.7422 157.889 90.9283 163.281ZM111.711 208.801L123.235 198.113C125.553 195.962 127.089 193.765 127.841 191.523C128.594 189.28 128.644 187.044 127.993 184.815C127.345 182.519 126.026 180.299 124.035 178.153C122.013 175.973 119.882 174.473 117.642 173.654C115.401 172.835 113.117 172.733 110.79 173.347C108.497 173.928 106.225 175.262 103.976 177.349L92.452 188.037L111.711 208.801Z" fill="white"/>
</svg>
